<?xml version="1.0" encoding="UTF-8"?>
<svg width="1365" height="1365" viewBox="0 0 1365 1365" version="1.1" xmlns="http://www.w3.org/2000/svg">
    <g stroke="none" stroke-width="1" fill="none" fill-rule="evenodd">
        <path d="M1365,682.5 C1365,305.645 1059.355,0 682.5,0 C305.645,0 0,305.645 0,682.5 C0,1023.342 249.718,1305.417 576.75,1356.563 L576.75,879.75 L403.375,879.75 L403.375,682.5 L576.75,682.5 L576.75,532.625 C576.75,361.551 678.804,267 835.552,267 C910.516,267 989.25,280.875 989.25,280.875 L989.25,446.25 L902.962,446.25 C817.902,446.25 791.25,498.517 791.25,552.188 L791.25,682.5 L981.375,682.5 L950.786,879.75 L791.25,879.75 L791.25,1356.563 C1118.282,1305.417 1365,1023.342 1365,682.5" fill="#1877F2" fill-rule="nonzero"></path>
        <path d="M950.786,879.75 L981.375,682.5 L791.25,682.5 L791.25,552.188 C791.25,498.517 817.902,446.25 902.962,446.25 L989.25,446.25 L989.25,280.875 C989.25,280.875 910.516,267 835.552,267 C678.804,267 576.75,361.551 576.75,532.625 L576.75,682.5 L403.375,682.5 L403.375,879.75 L576.75,879.75 L576.75,1356.563 C648.585,1367.948 723.415,1367.948 791.25,1356.563 L791.25,879.75 L950.786,879.75" fill="#FFFFFF" fill-rule="nonzero"></path>
    </g>
</svg>